<svg width="150" height="159" viewBox="0 0 150 159" fill="none" xmlns="http://www.w3.org/2000/svg">
<path d="M83.3332 16.6667H48.3333C34.3319 16.6667 27.3313 16.6667 21.9835 19.3915C17.2794 21.7884 13.4549 25.6129 11.0581 30.3169C8.33325 35.6647 8.33325 42.6654 8.33325 56.6667V110C8.33325 124.002 8.33325 131.002 11.0581 136.35C13.4549 141.054 17.2794 144.878 21.9835 147.275C27.3313 150 34.3319 150 48.3333 150H101.667C115.668 150 122.668 150 128.017 147.275C132.721 144.878 136.545 141.054 138.942 136.35C141.667 131.002 141.667 124.002 141.667 110V75" stroke="black" stroke-width="16.6667" stroke-linecap="round" stroke-linejoin="round"/>
<path d="M8.33325 116.667L44.1073 80.8925C47.3617 77.6383 52.6381 77.6383 55.8925 80.8925L83.3332 108.333M83.3332 108.333L106.607 85.0592C109.862 81.805 115.138 81.805 118.392 85.0592L141.667 108.333M83.3332 108.333L102.083 127.083" stroke="black" stroke-width="16.6667" stroke-linecap="round" stroke-linejoin="round"/>
<path d="M125 50V8.33334M125 8.33334L108.333 25M125 8.33334L141.667 25" stroke="black" stroke-width="16.6667" stroke-linecap="round" stroke-linejoin="round"/>
</svg>
