<?xml version="1.0" standalone="no"?>
<!DOCTYPE svg PUBLIC "-//W3C//DTD SVG 20010904//EN"
 "http://www.w3.org/TR/2001/REC-SVG-20010904/DTD/svg10.dtd">
<svg version="1.0" xmlns="http://www.w3.org/2000/svg"
 width="612.000000pt" height="612.000000pt" viewBox="0 0 612.000000 612.000000"
 preserveAspectRatio="xMidYMid meet">

<g transform="translate(0.000000,612.000000) scale(0.100000,-0.100000)"
fill="#000000" stroke="none">
<path d="M2926 4369 c-280 -29 -529 -141 -753 -336 -60 -52 -188 -201 -180
-209 2 -2 46 16 98 40 189 89 430 156 679 187 123 16 457 16 585 0 237 -30
482 -97 669 -185 55 -25 101 -44 103 -42 6 6 -71 99 -139 167 -211 214 -495
347 -802 378 -121 12 -145 12 -260 0z"/>
<path d="M892 4308 c-9 -9 -12 -82 -12 -265 l0 -253 45 0 45 0 2 218 3 217
143 3 142 3 0 44 0 45 -178 0 c-125 0 -182 -4 -190 -12z"/>
<path d="M4860 4275 l0 -45 140 0 140 0 0 -152 c0 -84 3 -183 7 -220 l6 -68
43 0 44 0 0 253 c0 183 -3 256 -12 265 -8 8 -65 12 -190 12 l-178 0 0 -45z"/>
<path d="M2866 3954 c-72 -16 -199 -63 -244 -91 -103 -63 -145 -96 -208 -158
-39 -39 -84 -90 -99 -113 l-27 -42 -30 18 c-54 31 -54 37 0 104 51 65 140 152
202 201 40 31 30 33 -48 11 -248 -71 -506 -207 -704 -371 -152 -126 -388 -401
-388 -453 0 -18 54 -99 132 -198 77 -97 297 -294 416 -373 140 -93 318 -179
467 -228 186 -60 189 -60 118 -7 -179 135 -311 332 -371 556 -22 82 -25 116
-26 250 0 117 4 171 17 219 10 36 19 67 21 69 6 5 86 -18 86 -25 0 -3 -7 -42
-16 -86 -23 -111 -15 -322 16 -427 93 -323 366 -577 693 -644 119 -25 294 -21
410 8 336 86 602 362 671 698 21 99 21 277 0 375 -67 327 -320 599 -646 694
-98 29 -340 36 -442 13z m320 -435 c24 -6 44 -15 44 -19 0 -4 -7 -24 -16 -45
-15 -36 -16 -37 -52 -29 -20 5 -73 9 -117 8 -69 0 -89 -5 -147 -32 -230 -111
-288 -411 -115 -599 183 -199 510 -145 624 103 41 90 41 218 -1 314 -6 15 41
50 69 50 17 0 44 -69 53 -140 29 -210 -77 -408 -267 -499 -75 -35 -78 -36
-202 -36 -125 0 -125 0 -203 38 -385 191 -348 738 59 879 58 20 203 24 271 7z"/>
<path d="M3655 3877 c82 -64 212 -204 257 -277 60 -96 102 -197 130 -307 34
-133 31 -350 -5 -487 -59 -221 -182 -403 -382 -563 l-40 -32 75 21 c337 93
639 273 880 525 110 114 230 273 230 303 0 53 -248 340 -399 462 -208 168
-458 297 -711 366 l-75 21 40 -32z"/>
<path d="M880 2077 c0 -183 3 -256 12 -265 8 -8 65 -12 190 -12 l178 0 0 45 0
44 -142 3 -143 3 -3 218 -2 217 -45 0 -45 0 0 -253z"/>
<path d="M5148 2113 l-3 -218 -142 -3 -143 -3 0 -44 0 -45 178 0 c125 0 182 4
190 12 9 9 12 82 12 265 l0 253 -45 0 -45 0 -2 -217z"/>
<path d="M1999 2283 c34 -63 178 -206 295 -293 237 -176 579 -270 879 -240
315 31 590 157 808 371 69 68 153 169 145 176 -2 2 -26 -7 -54 -21 -234 -119
-530 -194 -851 -217 -401 -28 -844 52 -1163 212 -67 34 -72 35 -59 12z"/>
</g>
</svg>
